<svg xmlns="http://www.w3.org/2000/svg" viewBox="0 0 32 32">
    <style>
        .star {
            fill: #212427;
        }
        @media (prefers-color-scheme: dark) {
            .star {
                fill: #ebebeb;
            }
        }
    </style>
    <path fill="#22c55e" d="M32 6.37v19.26A6.37 6.37 0 0 1 25.63 32H6.37A6.37 6.37 0 0 1 0 25.63V6.37A6.37 6.37 0 0 1 6.37 0h19.26A6.37 6.37 0 0 1 32 6.37Z"/>
    <path class="star" fill="#212427" d="m27.53 12.63-2.46-3.96a.14.14 0 0 0-.17-.05c-.65.41-3.9 2.29-4.6 2.29-.61 0-1.4-5.54-1.57-6.32a.13.13 0 0 0-.1-.1l-5.22-.86h-.02a.14.14 0 0 0-.13.12c-.07.95-.32 6.71-.85 6.78-.6.08-3.29-.7-6.13-1.75a.13.13 0 0 0-.18.08l-1.64 4.97c-.03.06 0 .14.07.17 1.6.78 6.12 3.39 6.12 3.73-.01.56-3.45 5.37-4.06 6.12a.13.13 0 0 0 .02.19l6.21 4.31c.02.02.05.03.08.03.04 0 .07-.03.1-.07.53-.94 3.83-6.74 4.36-6.72.58 0 4.68 3.23 5.9 4.26.06.03.13.03.17-.03l3.38-3.93a.13.13 0 0 0 0-.17c-.58-.6-4.14-4.17-4.25-4.75-.08-.44 4.15-3.67 4.95-4.17.05-.03.05-.13.02-.17Z"/>
</svg>
